name rise49.25peak52.1432fall72.8391.mot
datacolumns 19
datarows 26
range 7.97996500000000 8.02163200000000
endheader
time	ground_force1_vx	ground_force1_vy	ground_force1_vz	ground_force1_px	ground_force1_py	ground_force1_pz	ground_force2_vx	ground_force2_vy	ground_force2_vz	ground_force2_px	ground_force2_py	ground_force2_pz	ground_torque1_x	ground_torque1_y	ground_torque1_z	ground_torque2_x	ground_torque2_y	ground_torque2_z	
7.97996500000000	-43.69494000000000	780.17558599999995	50.68537300000000	0.11871600000000	0.00000000000000	0.12922200000000	-5.66874400000000	71.32648800000000	11.65488900000000	0.34677300000000	0.00000000000000	-0.04950500000000	0.00000000000000	22.76601600000000	0.00000000000000	0.00000000000000	7.71878700000000	0.00000000000000	
7.98163900000000	-44.22903000000000	778.34626600000001	50.57946500000000	0.11806100000000	0.00000000000000	0.12916700000000	-5.85527500000000	77.02431300000001	12.17842600000000	0.35050200000000	0.00000000000000	-0.04966200000000	0.00000000000000	22.74803500000000	0.00000000000000	0.00000000000000	8.12014000000000	0.00000000000000	
7.98330400000000	-44.77540600000000	776.40851899999996	50.45510500000000	0.11741300000000	0.00000000000000	0.12910900000000	-5.97218800000000	82.49058100000001	12.59810700000000	0.35392300000000	0.00000000000000	-0.04982600000000	0.00000000000000	22.72993200000000	0.00000000000000	0.00000000000000	8.45441900000000	0.00000000000000	
7.98497000000000	-45.33433500000000	774.36032100000000	50.31182100000000	0.11677000000000	0.00000000000000	0.12904600000000	-6.02232500000000	87.75167700000000	12.92234500000000	0.35706200000000	0.00000000000000	-0.04999600000000	0.00000000000000	22.71175600000000	0.00000000000000	0.00000000000000	8.72632900000000	0.00000000000000	
7.98663200000000	-45.90603300000000	772.19969000000003	50.14916700000000	0.11613200000000	0.00000000000000	0.12897900000000	-6.01013500000000	92.84779500000000	13.16232100000000	0.35994500000000	0.00000000000000	-0.05017200000000	0.00000000000000	22.69355200000000	0.00000000000000	0.00000000000000	8.94267600000000	0.00000000000000	
7.98830000000000	-46.49065700000000	769.92468699999995	49.96673100000000	0.11549700000000	0.00000000000000	0.12890900000000	-5.94105300000000	97.82767800000001	13.33072100000000	0.36259300000000	0.00000000000000	-0.05035400000000	0.00000000000000	22.67535800000000	0.00000000000000	0.00000000000000	9.11150800000000	0.00000000000000	
7.98997200000000	-47.08830700000000	767.53341699999999	49.76413400000000	0.11486500000000	0.00000000000000	0.12883400000000	-5.82090700000000	102.74357000000001	13.44056700000000	0.36502500000000	0.00000000000000	-0.05054200000000	0.00000000000000	22.65720400000000	0.00000000000000	0.00000000000000	9.24130000000000	0.00000000000000	
7.99163300000000	-47.69901800000000	765.02403400000003	49.54102900000000	0.11423400000000	0.00000000000000	0.12875500000000	-5.65540900000000	107.64672899999999	13.50422000000000	0.36725800000000	0.00000000000000	-0.05073500000000	0.00000000000000	22.63911100000000	0.00000000000000	0.00000000000000	9.34024000000000	0.00000000000000	
7.99330700000000	-48.32276000000000	762.39474299999995	49.29710600000000	0.11360400000000	0.00000000000000	0.12867300000000	-5.44974300000000	112.58377800000000	13.53259900000000	0.36930600000000	0.00000000000000	-0.05093400000000	0.00000000000000	22.62109500000000	0.00000000000000	0.00000000000000	9.41566500000000	0.00000000000000	
7.99496800000000	-48.95943400000000	759.64380200000005	49.03209200000000	0.11297400000000	0.00000000000000	0.12858700000000	-5.20827400000000	117.59401600000000	13.53464900000000	0.37118300000000	0.00000000000000	-0.05113800000000	0.00000000000000	22.60315900000000	0.00000000000000	0.00000000000000	9.47365900000000	0.00000000000000	
7.99663800000000	-49.60886800000000	756.76952300000005	48.74575400000000	0.11234200000000	0.00000000000000	0.12849600000000	-4.93437200000000	122.70772900000000	13.51704600000000	0.37290200000000	0.00000000000000	-0.05134700000000	0.00000000000000	22.58530100000000	0.00000000000000	0.00000000000000	9.51881500000000	0.00000000000000	
7.99830500000000	-50.27081500000000	753.77027899999996	48.43789600000000	0.11170700000000	0.00000000000000	0.12840200000000	-4.63034800000000	127.94545100000001	13.48412200000000	0.37447200000000	0.00000000000000	-0.05156000000000	0.00000000000000	22.56750600000000	0.00000000000000	0.00000000000000	9.55415500000000	0.00000000000000	
7.99997200000000	-50.94495100000000	750.64450399999998	48.10836600000000	0.11106900000000	0.00000000000000	0.12830400000000	-4.29748800000000	133.31806499999999	13.43798000000000	0.37590400000000	0.00000000000000	-0.05177800000000	0.00000000000000	22.54975300000000	0.00000000000000	0.00000000000000	9.58118900000000	0.00000000000000	
8.00163800000000	-51.63087300000000	747.39069700000005	47.75705300000000	0.11042700000000	0.00000000000000	0.12820300000000	-3.93615500000000	138.82757000000001	13.37874600000000	0.37720700000000	0.00000000000000	-0.05200100000000	0.00000000000000	22.53200700000000	0.00000000000000	0.00000000000000	9.60006800000000	0.00000000000000	
8.00330300000000	-52.32809600000000	744.00742300000002	47.38389000000000	0.10977900000000	0.00000000000000	0.12809700000000	-3.54595400000000	144.46834600000000	13.30493000000000	0.37838900000000	0.00000000000000	-0.05222700000000	0.00000000000000	22.51422600000000	0.00000000000000	0.00000000000000	9.60982600000000	0.00000000000000	
8.00496700000000	-53.03605100000000	740.49332200000003	46.98885300000000	0.10912500000000	0.00000000000000	0.12798800000000	-3.12592100000000	150.22873100000001	13.21382900000000	0.37945700000000	0.00000000000000	-0.05245700000000	0.00000000000000	22.49635500000000	0.00000000000000	0.00000000000000	9.60864800000000	0.00000000000000	
8.00663800000000	-53.75408700000000	736.84710500000006	46.57196300000000	0.10846300000000	0.00000000000000	0.12787600000000	-2.67472600000000	156.09272500000000	13.10195700000000	0.38041900000000	0.00000000000000	-0.05269100000000	0.00000000000000	22.47832900000000	0.00000000000000	0.00000000000000	9.59416800000000	0.00000000000000	
8.00829700000000	-54.48146600000000	733.06756600000006	46.13328600000000	0.10779400000000	0.00000000000000	0.12775900000000	-2.19087000000000	162.04168899999999	12.96544600000000	0.38127900000000	0.00000000000000	-0.05292800000000	0.00000000000000	22.46007200000000	0.00000000000000	0.00000000000000	9.56374300000000	0.00000000000000	
8.00998400000000	-55.21736400000000	729.15357700000004	45.67293600000000	0.10711500000000	0.00000000000000	0.12764000000000	-1.67286300000000	168.05589699999999	12.80040300000000	0.38204500000000	0.00000000000000	-0.05316800000000	0.00000000000000	22.44149500000000	0.00000000000000	0.00000000000000	9.51470800000000	0.00000000000000	
8.01163600000000	-55.96087000000000	725.10409800000002	45.19107000000000	0.10642700000000	0.00000000000000	0.12751700000000	-1.11937400000000	174.11587200000000	12.60320800000000	0.38272200000000	0.00000000000000	-0.05341000000000	0.00000000000000	22.42250000000000	0.00000000000000	0.00000000000000	9.44458100000000	0.00000000000000	
8.01330200000000	-56.71098800000000	720.91818000000001	44.68789300000000	0.10572700000000	0.00000000000000	0.12739100000000	-0.52934000000000	180.20344000000000	12.37073400000000	0.38331300000000	0.00000000000000	-0.05365600000000	0.00000000000000	22.40297600000000	0.00000000000000	0.00000000000000	9.35122000000000	0.00000000000000	
8.01496700000000	-57.46663500000000	716.59496700000000	44.16365700000000	0.10501700000000	0.00000000000000	0.12726100000000	0.09794800000000	186.30248700000001	12.10049600000000	0.38382500000000	0.00000000000000	-0.05390400000000	0.00000000000000	22.38280100000000	0.00000000000000	0.00000000000000	9.23293100000000	0.00000000000000	
8.01663600000000	-58.22664200000000	712.13369899999998	43.61865700000000	0.10429500000000	0.00000000000000	0.12712900000000	0.76281000000000	192.39941600000000	11.79073000000000	0.38426100000000	0.00000000000000	-0.05415300000000	0.00000000000000	22.36183900000000	0.00000000000000	0.00000000000000	9.08852200000000	0.00000000000000	
8.01830300000000	-58.98975700000000	707.53372000000002	43.05323700000000	0.10356000000000	0.00000000000000	0.12699300000000	1.46516300000000	198.48334399999999	11.44040400000000	0.38462400000000	0.00000000000000	-0.05440500000000	0.00000000000000	22.33994500000000	0.00000000000000	0.00000000000000	8.91731500000000	0.00000000000000	
8.01996700000000	-59.75464500000000	702.79448000000002	42.46778500000000	0.10281200000000	0.00000000000000	0.12685500000000	2.20453600000000	204.54605699999999	11.04918500000000	0.38492000000000	0.00000000000000	-0.05465800000000	0.00000000000000	22.31696100000000	0.00000000000000	0.00000000000000	8.71912100000000	0.00000000000000	
8.02163200000000	-60.51989100000000	697.91553699999997	41.86273400000000	0.10205000000000	0.00000000000000	0.12671300000000	2.98010600000000	210.58179600000000	10.61736300000000	0.38515000000000	0.00000000000000	-0.05491300000000	0.00000000000000	22.29271800000000	0.00000000000000	0.00000000000000	8.49418800000000	0.00000000000000	
